<svg xmlns="http://www.w3.org/2000/svg" width="315.5" height="120.43" viewBox="0 0 315.5 120.43"><title>colza-logo-white</title><path d="M525,382.8V279.94c35.34,0,108,0,108,0l-.36.83s0,68.31,0,102.07l-65.78,0c2.12-4,1.7-8.41,1.7-12.74,0-14.7,0-29.4,0-44.11a14,14,0,0,1,.59-4.07c.9-3,2.41-5.93,2.42-8.9,0-5.34-.88-10.69-1.42-16.36-2.91,2.28-5.56,4.31-8.14,6.43a3.9,3.9,0,0,1-2.83,1,65.79,65.79,0,0,0-11.8,1.05c-.54.08-1.39-.12-1.37,1,0,2.6,0,5.19,0,7.89a27,27,0,0,1,11.19-.95c1.13.12,1.51.46,1.52,1.67,0,5,.21,10,.32,15,0,.78,0,1.51,1.09,1.3,1.29-.23,1.33.5,1.26,1.49Q560.63,343.22,560,354q-.87,14.41-1.71,28.82Z" transform="translate(-525 -279.9)" fill="#fff"/><path d="M572.48,294.19c-.43,2.21-.12,4.45-.17,6.67,0,1.37,1.14,1.07,1.88,1.13a103.48,103.48,0,0,1,25.55,5.66,75.47,75.47,0,0,1,21.47,11.52c.56.44,1,1,1.58,1.45l-.26.27A160.74,160.74,0,0,0,591,313c-5.21-.78-10.45-1.31-15.7-1.76-1.35-.12-1.82.21-1.79,1.65.08,4.74,0,9.49,0,14.23,0,1.08,0,2-1.54,1.79-1-.15-1,.49-.92,1.25q1.44,22.58,2.84,45.16c.14,2.17.23,4.34.43,6.51.09,1-.14,1.53-1.24,1.38-.13,0-.27,0-.4,0-4.1-.9-6,1-7.3,4.83a75.39,75.39,0,0,1-5.7,12.34c.21-4.56.41-9.11.65-13.67q.89-16.87,1.8-33.74.6-11.06,1.16-22.11c0-.8.51-1.88-1.05-2-.8-.07-.53-.95-.55-1.49-.13-4.74-.3-9.48-.32-14.22,0-1.51-.35-2.2-2-2.43A28.91,28.91,0,0,0,550,311a4.54,4.54,0,0,1-2.13.24q0-4,0-8a50,50,0,0,1,13.56-1.5c1.2,0,1.61-.22,1.55-1.47-.09-1.89,0-3.79,0-5.69,1,0,2,.06,2.93,0,1.91-.17,3.87.46,5.72-.38Z" transform="translate(-525 -279.9)" fill="#fe8303"/><path d="M606.28,369.36V366.5c0-.16,0-.19.19-.19h2.69c.13,0,.17,0,.17.17,0,.91,0,1.82,0,2.73a.76.76,0,0,1,0,.15Z" transform="translate(-525 -279.9)" fill="#fe8201"/><path d="M589.54,360c0-1.91,0-3.82,0-5.73,0-.14,0-.18.18-.18h11.44c.15,0,.19,0,.19.19v11.42c0,.16,0,.2-.2.2H589.72c-.15,0-.19,0-.19-.19C589.54,363.85,589.54,361.94,589.54,360Z" transform="translate(-525 -279.9)" fill="#fe8200"/><path d="M611.22,361.74H607.6c-.14,0-.18,0-.18-.17V354.3c0-.13,0-.17.17-.17h7.28c.13,0,.17,0,.17.17v7.26c0,.15,0,.19-.18.18Z" transform="translate(-525 -279.9)" fill="#fe8200"/><path d="M590.88,341.57h3.43c.13,0,.17,0,.17.17v6.9c0,.14,0,.16-.17.16h-6.88c-.13,0-.18,0-.18-.16q0-3.45,0-6.9c0-.15,0-.17.18-.17Z" transform="translate(-525 -279.9)" fill="#fe8100"/><path d="M603.63,342.72h3.24c.13,0,.17,0,.17.17v6.52c0,.12,0,.17-.16.17h-6.53c-.12,0-.16,0-.16-.15,0-2.18,0-4.37,0-6.55,0-.13,0-.15.16-.15Z" transform="translate(-525 -279.9)" fill="#fe8100"/><path d="M594.86,329.41h6.48v6.27c0,.15,0,.18-.18.18H595c-.14,0-.18,0-.18-.18Z" transform="translate(-525 -279.9)" fill="#fe8201"/><path d="M587.43,331.3h1.94c.12,0,.17,0,.17.17v3.86c0,.13,0,.16-.16.16h-3.86c-.15,0-.17,0-.17-.17v-3.85c0-.14,0-.17.17-.17Z" transform="translate(-525 -279.9)" fill="#fe8200"/><path d="M616.56,346.91v1.74c0,.12,0,.15-.15.15h-3.5c-.12,0-.16,0-.16-.15q0-1.75,0-3.51c0-.12,0-.15.15-.15h3.51c.13,0,.15.05.15.16Z" transform="translate(-525 -279.9)" fill="#fe8100"/><path d="M609.7,336.63h-1.36c-.11,0-.16,0-.16-.15v-2.76c0-.11,0-.15.14-.15h2.78c.11,0,.13,0,.13.14,0,.93,0,1.85,0,2.78,0,.12-.06.14-.16.14Z" transform="translate(-525 -279.9)" fill="#fe8303"/><path d="M621.12,339.68v2.45c0,.07,0,.14,0,.2h-2.47c-.14,0-.18,0-.18-.18v-2.34c0-.08,0-.15.11-.15Z" transform="translate(-525 -279.9)" fill="#fe8201"/><path d="M682.05,349.61H692.8l0,.21q.17,9-5.46,14.27t-15.7,5.23q-10.06,0-16.31-6.42t-6.24-16.69v-11q0-10.19,6.11-16.65t16.19-6.46q10.07,0,15.89,5.27T693,331.77l-.09.25H682.05q0-11.38-10.88-11.38a9.33,9.33,0,0,0-7.92,4q-3,4-3,10.43v11.13q0,6.5,3.1,10.51a10,10,0,0,0,8.37,4q5.26,0,7.77-2.76C681.21,356.13,682.05,353.35,682.05,349.61Z" transform="translate(-525 -279.9)" fill="#fff"/><path d="M698.23,348.25v-.81q0-9.46,5.21-15.27t14.27-5.8q9.07,0,14.32,5.8t5.24,15.27v.81q0,9.51-5.22,15.29t-14.3,5.78q-9.06,0-14.29-5.78T698.23,348.25Zm11.13-.81v.81c0,3.93.69,7,2.06,9.19a7.67,7.67,0,0,0,12.62,0c1.38-2.21,2.06-5.26,2.06-9.17v-.81q0-5.78-2.08-9.11a7.57,7.57,0,0,0-12.57,0Q709.36,341.71,709.36,347.44Z" transform="translate(-525 -279.9)" fill="#fff"/><path d="M755.88,308.78v59.65H744.71V308.78Z" transform="translate(-525 -279.9)" fill="#fff"/><path d="M798,359.84v8.59H763.65v-6.59l19.67-26.12H764.25v-8.67h33.09v6.37L777.5,359.84Z" transform="translate(-525 -279.9)" fill="#fff"/><path d="M816.42,369.32q-6.46,0-10-3.32t-3.52-9.32a10.69,10.69,0,0,1,4.67-9.3q4.67-3.3,13.68-3.3h6.2v-3.27a6.42,6.42,0,0,0-1.57-4.67,5.9,5.9,0,0,0-4.44-1.61,6.41,6.41,0,0,0-4.35,1.31,4.61,4.61,0,0,0-1.49,3.66l-10.79-.05v-.21q-.3-5.39,4.56-9.13c3.25-2.49,7.42-3.74,12.54-3.74s9.18,1.27,12.21,3.82,4.55,6.11,4.55,10.67V358a30.2,30.2,0,0,0,1.82,10.53H829.33a20.52,20.52,0,0,1-1.66-6.2Q823.59,369.32,816.42,369.32ZM814,356.49h0a4.24,4.24,0,0,0,1.39,3.33,5.7,5.7,0,0,0,4,1.26,9.1,9.1,0,0,0,4.9-1.43,7.54,7.54,0,0,0,3.15-3.42v-5.86h-6.2a7.74,7.74,0,0,0-5.38,1.72A5.7,5.7,0,0,0,814,356.49Z" transform="translate(-525 -279.9)" fill="#fff"/></svg>